<svg width="240" height="92" viewBox="0 0 240 92" fill="none" xmlns="http://www.w3.org/2000/svg">
<path d="M120.014 0C211.162 1.61304 239.999 29.3743 239.999 44.9954C236.691 22.4411 195.33 8.03691 144.129 7.89541C91.1482 7.69732 48.2034 24.9314 48.2034 45.9858C48.2034 67.0403 91.1482 83.7367 144.129 84.1046C194.199 84.4442 238.161 68.6533 239.999 47.0046C240.253 67.9742 193.52 92.0283 120.014 92C53.7446 91.9717 1.11489e-05 71.3983 1.11489e-05 46.0141C-0.0282606 20.6017 53.7163 0 120.014 0Z" fill="#1A1F2D"/>
<path d="M100.025 62.3709H102.174V72.1624H100.025V62.3709Z" fill="#1A1F2D"/>
<path d="M110.373 65.7668L108.959 64.3519H108.846L109.101 65.7668V72.1624H107.065V62.2295H108.196L116.904 68.7665L118.261 70.0966H118.402L118.119 68.7665V62.3993H120.155V72.3039H119.024L110.373 65.7668Z" fill="#1A1F2D"/>
<path d="M124.565 62.3709C124.905 62.3427 125.272 62.3144 125.668 62.3144C126.064 62.3144 126.488 62.2861 126.94 62.2861C127.393 62.2861 127.817 62.2861 128.241 62.2861C128.665 62.2861 129.061 62.2861 129.428 62.2861C130.87 62.2861 132.142 62.3993 133.217 62.6539C134.291 62.9086 135.167 63.2199 135.846 63.6727C136.553 64.0972 137.061 64.6349 137.401 65.2291C137.74 65.8234 137.91 66.5026 137.91 67.2384C137.91 67.8892 137.74 68.5401 137.429 69.1344C137.118 69.757 136.609 70.2947 135.902 70.7475C135.196 71.2285 134.319 71.5964 133.188 71.8794C132.086 72.1624 130.729 72.3039 129.174 72.3039C128.891 72.3039 128.523 72.3039 128.099 72.3039C127.675 72.3039 127.195 72.3039 126.742 72.2756C126.262 72.2756 125.838 72.2473 125.442 72.2473C125.046 72.2473 124.763 72.219 124.594 72.219V62.3709H124.565ZM129.485 63.3048C129.258 63.3048 129.004 63.3048 128.75 63.3048C128.467 63.3048 128.212 63.3048 127.958 63.3048C127.704 63.3048 127.449 63.3331 127.251 63.3331C127.025 63.3331 126.855 63.3614 126.742 63.3614V71.2002C126.827 71.2002 126.997 71.2285 127.223 71.2285C127.477 71.2285 127.704 71.2285 127.986 71.2285C128.241 71.2285 128.495 71.2285 128.75 71.2285C129.004 71.2285 129.145 71.2285 129.23 71.2285C130.446 71.2285 131.464 71.1153 132.284 70.8889C133.103 70.6626 133.754 70.3513 134.263 69.9834C134.743 69.6155 135.111 69.1627 135.309 68.6816C135.507 68.2005 135.62 67.6912 135.62 67.1535C135.62 66.7007 135.535 66.2479 135.337 65.7668C135.139 65.3141 134.828 64.8896 134.347 64.5217C133.867 64.1538 133.245 63.8425 132.453 63.6161C131.662 63.418 130.672 63.3048 129.485 63.3048Z" fill="#1A1F2D"/>
<path d="M152.017 62.3709H154.109V68.908C154.109 69.5023 153.968 70.0117 153.685 70.4362C153.403 70.8606 152.979 71.2285 152.47 71.4832C151.932 71.7662 151.31 71.9643 150.547 72.0775C149.812 72.219 148.992 72.2756 148.087 72.2756C145.939 72.2756 144.327 72.0209 143.225 71.4832C142.122 70.9738 141.585 70.1815 141.585 69.1061V62.3427H143.734V68.5401C143.734 69.0212 143.818 69.4457 144.016 69.7853C144.214 70.1249 144.469 70.4079 144.836 70.606C145.204 70.804 145.656 70.9738 146.193 71.0587C146.73 71.1436 147.381 71.2002 148.116 71.2002C149.529 71.2002 150.519 71.0022 151.141 70.5777C151.735 70.1532 152.046 69.474 152.046 68.5401V62.3709H152.017Z" fill="#1A1F2D"/>
<path d="M166.719 69.6721C166.719 69.2759 166.492 68.9646 166.068 68.7099C165.644 68.4552 165.107 68.2571 164.457 68.059C163.807 67.861 163.1 67.6912 162.336 67.5214C161.573 67.3516 160.866 67.1535 160.216 66.9271C159.566 66.7007 159.029 66.3894 158.605 66.0498C158.18 65.7102 157.954 65.2575 157.954 64.7198C157.954 63.9557 158.435 63.3614 159.424 62.9086C160.414 62.4558 161.828 62.2295 163.637 62.2295C164.683 62.2295 165.644 62.2578 166.521 62.3427C167.397 62.4275 168.076 62.5407 168.556 62.6539L167.906 63.701C167.51 63.5878 166.916 63.5029 166.153 63.3897C165.39 63.3048 164.513 63.2482 163.552 63.2482C162.421 63.2482 161.545 63.3897 160.979 63.6727C160.414 63.9557 160.131 64.267 160.131 64.6349C160.131 65.0028 160.357 65.314 160.781 65.5404C161.206 65.7951 161.743 65.9932 162.393 66.1913C163.043 66.3894 163.75 66.5592 164.513 66.7573C165.277 66.9554 165.984 67.1535 166.634 67.4082C167.284 67.6629 167.821 67.9458 168.245 68.2854C168.669 68.625 168.895 69.0495 168.895 69.5589C168.895 69.9834 168.754 70.3513 168.471 70.6908C168.189 71.0304 167.793 71.3134 167.256 71.5681C166.719 71.8228 166.068 71.9926 165.305 72.1341C164.542 72.2756 163.665 72.3322 162.704 72.3322C161.403 72.3322 160.329 72.2756 159.481 72.1624C158.633 72.0492 157.983 71.936 157.502 71.7945L158.237 70.7475C158.633 70.8606 159.227 70.9738 160.018 71.087C160.81 71.2002 161.686 71.2568 162.647 71.2568C163.213 71.2568 163.75 71.2285 164.259 71.1719C164.768 71.1153 165.192 71.0021 165.559 70.8889C165.927 70.7475 166.21 70.5777 166.436 70.3796C166.605 70.1815 166.719 69.9551 166.719 69.6721Z" fill="#1A1F2D"/>
<path d="M178.395 63.418V72.1624H176.246V63.418H170.592V62.3709H184.077V63.418H178.395Z" fill="#1A1F2D"/>
<path d="M186.735 62.4841C187.385 62.4275 188.149 62.3709 188.997 62.3427C189.845 62.3144 190.636 62.2861 191.343 62.2861C192.135 62.2861 192.898 62.3427 193.605 62.4276C194.312 62.5124 194.962 62.6822 195.499 62.8803C196.036 63.1067 196.489 63.3614 196.8 63.7293C197.139 64.0689 197.28 64.4934 197.28 64.9744C197.28 65.7385 196.885 66.3611 196.121 66.8422C195.33 67.3233 194.368 67.6346 193.153 67.8044L194.397 68.3137L198.92 72.1907H196.404L191.4 67.9742L188.855 67.7761V72.219H186.707V62.4841H186.735ZM191.4 63.2765C191.174 63.2765 190.947 63.2765 190.693 63.2765C190.439 63.2765 190.212 63.2765 189.986 63.2765C189.76 63.2765 189.562 63.3048 189.336 63.3048C189.138 63.3048 188.968 63.3331 188.855 63.3331V66.9271H190.891C192.078 66.9271 193.068 66.7573 193.859 66.446C194.651 66.1347 195.019 65.6253 195.019 64.9744C195.019 64.4651 194.708 64.0689 194.057 63.7293C193.435 63.4463 192.559 63.2765 191.4 63.2765Z" fill="#1A1F2D"/>
<path d="M204.631 68.2854L198.637 62.3709H201.154L205.423 66.6441L205.875 67.4931H205.903L206.384 66.6158L210.483 62.3709H212.773L206.836 68.2571V72.1624H204.688V68.2854H204.631Z" fill="#1A1F2D"/>
<path d="M75.316 52.6078C75.316 51.8437 74.8354 51.2495 73.9024 50.7684C72.9694 50.2873 71.782 49.8628 70.3401 49.4949C68.9266 49.0987 67.3716 48.7025 65.7036 48.3064C64.0355 47.8819 62.4806 47.4008 61.067 46.7782C59.6534 46.1839 58.466 45.4482 57.5048 44.5426C56.5718 43.637 56.0912 42.5051 56.0912 41.1184C56.0912 39.9299 56.4304 38.8828 57.109 38.0055C57.7875 37.1283 58.777 36.3925 60.021 35.7982C61.2932 35.2039 62.7916 34.7794 64.5162 34.4965C66.2407 34.2135 68.1632 34.072 70.2836 34.072C72.7432 34.072 75.0333 34.1852 77.2102 34.4399C79.3871 34.6946 81.1682 35.0341 82.5818 35.5152L79.9808 39.562C79.1044 39.2224 77.7756 38.9394 75.9945 38.6564C74.2134 38.3734 72.3192 38.2602 70.2836 38.2602C68.3611 38.2602 66.891 38.4866 65.8449 38.9394C64.8271 39.3922 64.3183 39.9865 64.3183 40.7222C64.3183 41.4297 64.7989 42.024 65.7318 42.4768C66.6648 42.9579 67.8522 43.3823 69.2941 43.7785C70.7077 44.1747 72.2626 44.5992 73.9306 45.0237C75.5987 45.4482 77.1536 45.9575 78.5672 46.5518C79.9808 47.1461 81.1682 47.8819 82.1295 48.7591C83.0624 49.6364 83.543 50.7401 83.543 52.0418C83.543 53.3436 83.1755 54.4755 82.4405 55.4377C81.7054 56.3999 80.6593 57.1922 79.3023 57.8148C77.9452 58.4374 76.3337 58.9185 74.4113 59.2298C72.5171 59.541 70.3967 59.6825 68.1067 59.6825C65.1099 59.6825 62.4523 59.5128 60.1623 59.2015C57.8723 58.8619 56.176 58.5506 55.1017 58.211L57.7592 54.0794C58.2116 54.2208 58.777 54.3623 59.4838 54.5321C60.1906 54.7019 60.9822 54.8434 61.8586 54.9849C62.735 55.1264 63.668 55.2396 64.6575 55.3245C65.647 55.4094 66.6648 55.466 67.7109 55.466C70.1705 55.466 72.0364 55.2396 73.337 54.7302C74.6657 54.334 75.316 53.5983 75.316 52.6078Z" fill="#1A1F2D"/>
<path d="M118.968 38.8545H106.698V59.2015H98.4423V38.8545H86.0875V34.5531H118.968V38.8545Z" fill="#1A1F2D"/>
<path d="M148.257 34.5814V38.8828H131.52V44.6275H146.759V48.9289H131.52V54.9566H148.54V59.2581H123.237V34.5814H148.257Z" fill="#1A1F2D"/>
<path d="M154.675 34.5814H179.667V38.8828H162.93V44.6275H178.169V48.9289H162.93V54.9566H179.978V59.2581H154.675V34.5814Z" fill="#1A1F2D"/>
<path d="M212.802 59.2298H186.113V34.5814H194.368V54.9283H212.802V59.2298Z" fill="#1A1F2D"/>
<path d="M196.856 31.3836C197.393 31.2987 197.959 31.2421 198.581 31.2138C199.203 31.1855 199.825 31.1855 200.419 31.1855C201.069 31.1855 201.719 31.2138 202.398 31.2987C203.076 31.3836 203.67 31.5251 204.235 31.7515C204.801 31.9778 205.225 32.2891 205.564 32.657C205.903 33.0532 206.073 33.5343 206.073 34.1286C206.073 34.7229 205.903 35.2039 205.592 35.6284C205.281 36.0246 204.829 36.3642 204.292 36.6189C203.755 36.8736 203.133 37.0434 202.454 37.1566C201.776 37.2698 201.04 37.3264 200.334 37.3264C200.249 37.3264 200.136 37.3264 199.994 37.3264C199.825 37.3264 199.655 37.3264 199.486 37.3264C199.316 37.3264 199.146 37.3264 198.977 37.2981C198.807 37.2981 198.694 37.2698 198.609 37.2698V40.9486H196.856V31.3836ZM200.447 32.1759C200.079 32.1759 199.74 32.1759 199.401 32.1759C199.061 32.1759 198.807 32.2042 198.609 32.2325V36.2227C198.666 36.251 198.779 36.251 198.948 36.251C199.09 36.251 199.259 36.251 199.429 36.251C199.599 36.251 199.768 36.251 199.91 36.251C200.051 36.251 200.164 36.251 200.249 36.251C200.729 36.251 201.21 36.2227 201.662 36.1661C202.143 36.1095 202.567 35.9963 202.935 35.8548C203.302 35.685 203.613 35.4869 203.868 35.2039C204.094 34.9209 204.207 34.5531 204.207 34.1003C204.207 33.7324 204.094 33.4211 203.868 33.1664C203.641 32.9117 203.359 32.7136 202.991 32.5721C202.624 32.4306 202.228 32.3174 201.776 32.2608C201.351 32.2042 200.899 32.1759 200.447 32.1759Z" fill="#1A1F2D"/>
<path d="M208.646 31.3836C209.183 31.327 209.805 31.2704 210.483 31.2421C211.19 31.2138 211.812 31.1855 212.406 31.1855C213.056 31.1855 213.678 31.2421 214.243 31.327C214.837 31.4119 215.346 31.5817 215.798 31.7798C216.251 31.9778 216.59 32.2608 216.873 32.6004C217.127 32.94 217.268 33.3645 217.268 33.8456C217.268 34.6097 216.957 35.2039 216.307 35.685C215.657 36.1661 214.865 36.4774 213.904 36.6189L214.922 37.1283L218.597 40.9486H216.533L212.462 36.7887L210.398 36.5906V40.9769H208.646V31.3836ZM212.462 32.1759C212.293 32.1759 212.095 32.1759 211.897 32.1759C211.699 32.1759 211.501 32.1759 211.331 32.1759C211.162 32.1759 210.964 32.2042 210.823 32.2042C210.653 32.2042 210.54 32.2325 210.427 32.2325V35.7982H212.066C213.028 35.7982 213.848 35.6284 214.47 35.3171C215.092 35.0058 215.431 34.5248 215.431 33.8456C215.431 33.3362 215.176 32.94 214.639 32.6287C214.102 32.3457 213.395 32.1759 212.462 32.1759Z" fill="#1A1F2D"/>
<path d="M219.672 36.1095C219.672 34.4965 220.18 33.2796 221.227 32.4023C222.273 31.5534 223.743 31.1006 225.693 31.1006C226.74 31.1006 227.644 31.2138 228.408 31.4685C229.171 31.6949 229.793 32.0344 230.302 32.4872C230.811 32.9117 231.178 33.4494 231.404 34.072C231.631 34.6945 231.772 35.3737 231.772 36.1095C231.772 37.7225 231.235 38.9677 230.189 39.8167C229.143 40.6656 227.644 41.1184 225.693 41.1184C224.676 41.1184 223.771 41.0052 223.008 40.7505C222.244 40.5241 221.622 40.1846 221.113 39.7318C220.605 39.3073 220.237 38.7696 220.011 38.147C219.813 37.5527 219.672 36.8736 219.672 36.1095ZM221.537 36.1095C221.537 36.6472 221.622 37.1566 221.792 37.6376C221.962 38.1187 222.216 38.5432 222.555 38.9111C222.895 39.279 223.319 39.562 223.856 39.7884C224.393 40.0148 225.015 40.0997 225.722 40.0997C227.022 40.0997 228.068 39.7884 228.803 39.1375C229.538 38.4866 229.934 37.4962 229.934 36.1378C229.934 35.6001 229.849 35.119 229.68 34.638C229.51 34.1569 229.256 33.7324 228.916 33.3645C228.577 32.9966 228.125 32.7136 227.616 32.4872C227.079 32.2608 226.457 32.1759 225.722 32.1759C224.421 32.1759 223.403 32.4872 222.668 33.1381C221.933 33.789 221.537 34.7511 221.537 36.1095Z" fill="#1A1F2D"/>
</svg>
