<svg width="22" height="22" viewBox="0 0 22 22" fill="none" xmlns="http://www.w3.org/2000/svg">
<path fill-rule="evenodd" clip-rule="evenodd" d="M11 2C6.02944 2 2 6.02944 2 11C2 15.9706 6.02944 20 11 20C15.9706 20 20 15.9706 20 11C20 6.02944 15.9706 2 11 2ZM0 11C0 4.92487 4.92487 0 11 0C17.0751 0 22 4.92487 22 11C22 17.0751 17.0751 22 11 22C4.92487 22 0 17.0751 0 11Z" fill="url(#paint0_linear)"/>
<path d="M11.7071 7.70711C12.0976 7.31658 12.0976 6.68342 11.7071 6.29289C11.3166 5.90237 10.6834 5.90237 10.2929 6.29289L6.29289 10.2929C5.90237 10.6834 5.90237 11.3166 6.29289 11.7071L10.2929 15.7071C10.6834 16.0976 11.3166 16.0976 11.7071 15.7071C12.0976 15.3166 12.0976 14.6834 11.7071 14.2929L9.41421 12H15C15.5523 12 16 11.5523 16 11C16 10.4477 15.5523 10 15 10H9.41421L11.7071 7.70711Z" fill="url(#paint1_linear)"/>
<defs>
<linearGradient id="paint0_linear" x1="-3.51859e-08" y1="11.2444" x2="22.9059" y2="11.2444" gradientUnits="userSpaceOnUse">
<stop stop-color="#0040D5"/>
<stop offset="1" stop-color="#0057FF"/>
</linearGradient>
<linearGradient id="paint1_linear" x1="-3.51859e-08" y1="11.2444" x2="22.9059" y2="11.2444" gradientUnits="userSpaceOnUse">
<stop stop-color="#0040D5"/>
<stop offset="1" stop-color="#0057FF"/>
</linearGradient>
</defs>
</svg>
